solid Spudger
facet normal 1.0 -0.0 -0.0
outer loop
vertex 1043.70923782987 798.507918323556 0.0
vertex 1043.70923782987 792.157918323556 3.175
vertex 1043.70923782987 792.157918323556 0.0
endloop
endfacet
facet normal 1.0 -0.0 -0.0
outer loop
vertex 1043.70923782987 792.157918323556 3.175
vertex 1043.70923782987 798.507918323556 0.0
vertex 1043.70923782987 798.507918323556 3.175
endloop
endfacet
facet normal -0.0 1.0 -0.0
outer loop
vertex 911.515694659174 798.507918323556 2.16883116693424
vertex 911.559520918764 798.507918323556 1.00451915410647
vertex 896.071737829874 798.507918323556 1.5875
endloop
endfacet
facet normal 0.108197571700102 -1.37963170171015e-17 -0.994129410830502
outer loop
vertex 1058.29533634295 795.332918323556 1.5875
vertex 1043.70923782987 792.157918323556 0.0
vertex 1043.70923782987 798.507918323556 0.0
endloop
endfacet
facet normal 0.108197571700102 -1.37963170170976e-17 0.994129410830502
outer loop
vertex 1058.29533634295 795.332918323556 1.5875
vertex 1043.70923782987 798.507918323556 3.175
vertex 1043.70923782987 792.157918323556 3.175
endloop
endfacet
facet normal 0.212692477243839 0.977119189313095 -0.0
outer loop
vertex 1043.70923782987 798.507918323556 3.175
vertex 1058.29533634295 795.332918323556 1.5875
vertex 1043.70923782987 798.507918323556 0.0
endloop
endfacet
facet normal 0.212692477243839 -0.977119189313095 0.0
outer loop
vertex 1043.70923782987 792.157918323556 3.175
vertex 1043.70923782987 792.157918323556 0.0
vertex 1058.29533634295 795.332918323556 1.5875
endloop
endfacet
facet normal 0.0 -1.0 0.0
outer loop
vertex 1043.70923782987 792.157918323556 3.175
vertex 938.246117703243 792.157918323556 0.0
vertex 1043.70923782987 792.157918323556 0.0
endloop
endfacet
facet normal 0.0 -1.0 0.0
outer loop
vertex 938.246117703243 792.157918323556 0.0
vertex 1043.70923782987 792.157918323556 3.175
vertex 896.071737829874 792.157918323556 1.5875
endloop
endfacet
facet normal 0.0 -1.0 0.0
outer loop
vertex 896.071737829874 792.157918323556 1.5875
vertex 1043.70923782987 792.157918323556 3.175
vertex 938.246117703243 792.157918323556 3.175
endloop
endfacet
facet normal 0.0 0.0 -1.0
outer loop
vertex 1043.70923782987 798.507918323556 0.0
vertex 938.246117703243 792.157918323556 0.0
vertex 938.246117703243 798.507918323556 0.0
endloop
endfacet
facet normal 0.0 0.0 -1.0
outer loop
vertex 938.246117703243 792.157918323556 0.0
vertex 1043.70923782987 798.507918323556 0.0
vertex 1043.70923782987 792.157918323556 0.0
endloop
endfacet
facet normal -0.0 -0.0 1.0
outer loop
vertex 1043.70923782987 792.157918323556 3.175
vertex 938.246117703243 798.507918323556 3.175
vertex 938.246117703243 792.157918323556 3.175
endloop
endfacet
facet normal -0.0 -0.0 1.0
outer loop
vertex 938.246117703243 798.507918323556 3.175
vertex 1043.70923782987 792.157918323556 3.175
vertex 1043.70923782987 798.507918323556 3.175
endloop
endfacet
facet normal 0.99929231684774 3.7599691944989e-16 0.0376146977799456
outer loop
vertex 911.559520918764 798.507918323556 1.00451915410647
vertex 911.515694659174 796.469728909795 2.16883116693426
vertex 911.559520918764 796.469728909795 1.00451915410649
endloop
endfacet
facet normal 0.99929231684774 3.7599691944989e-16 0.0376146977799456
outer loop
vertex 911.515694659174 796.469728909795 2.16883116693426
vertex 911.559520918764 798.507918323556 1.00451915410647
vertex 911.515694659174 798.507918323556 2.16883116693424
endloop
endfacet
facet normal -0.0376146977800022 1.86591590995404e-16 0.999292316847738
outer loop
vertex 938.246117703243 792.157918323556 3.175
vertex 896.071737829874 798.507918323556 1.5875
vertex 896.071737829874 792.157918323556 1.5875
endloop
endfacet
facet normal -0.0376146977800022 1.86591590995404e-16 0.999292316847738
outer loop
vertex 896.071737829874 798.507918323556 1.5875
vertex 938.246117703243 792.157918323556 3.175
vertex 911.515694659174 796.469728909795 2.16883116693426
endloop
endfacet
facet normal -0.0376146977800022 1.86591590995404e-16 0.999292316847738
outer loop
vertex 911.515694659174 796.469728909795 2.16883116693426
vertex 938.246117703243 792.157918323556 3.175
vertex 913.948393539469 798.507918323556 2.26040120267782
endloop
endfacet
facet normal -0.0376146977800022 1.86591590995404e-16 0.999292316847738
outer loop
vertex 913.948393539469 798.507918323556 2.26040120267782
vertex 938.246117703243 792.157918323556 3.175
vertex 938.246117703243 798.507918323556 3.175
endloop
endfacet
facet normal -0.0376146977800022 1.86591590995404e-16 0.999292316847738
outer loop
vertex 911.515694659174 798.507918323556 2.16883116693424
vertex 896.071737829874 798.507918323556 1.5875
vertex 911.515694659174 796.469728909795 2.16883116693426
endloop
endfacet
facet normal -0.0 1.0 -0.0
outer loop
vertex 913.992219799059 798.507918323556 0.912949118362882
vertex 1043.70923782987 798.507918323556 0.0
vertex 938.246117703243 798.507918323556 0.0
endloop
endfacet
facet normal -0.0 1.0 -0.0
outer loop
vertex 1043.70923782987 798.507918323556 0.0
vertex 913.992219799059 798.507918323556 0.912949118362882
vertex 1043.70923782987 798.507918323556 3.175
endloop
endfacet
facet normal -0.0 1.0 -0.0
outer loop
vertex 1043.70923782987 798.507918323556 3.175
vertex 913.992219799059 798.507918323556 0.912949118362882
vertex 913.992219799059 798.507918323556 1.09608918985005
endloop
endfacet
facet normal -0.0 1.0 -0.0
outer loop
vertex 1043.70923782987 798.507918323556 3.175
vertex 913.992219799059 798.507918323556 1.09608918985005
vertex 913.948393539469 798.507918323556 2.26040120267782
endloop
endfacet
facet normal -0.0 1.0 -0.0
outer loop
vertex 1043.70923782987 798.507918323556 3.175
vertex 913.948393539469 798.507918323556 2.26040120267782
vertex 938.246117703243 798.507918323556 3.175
endloop
endfacet
facet normal -0.0376146977800023 4.06569408076656e-16 -0.999292316847737
outer loop
vertex 911.559520918764 798.507918323556 1.00451915410647
vertex 896.071737829874 792.157918323556 1.5875
vertex 896.071737829874 798.507918323556 1.5875
endloop
endfacet
facet normal -0.0376146977800023 4.06569408076656e-16 -0.999292316847737
outer loop
vertex 896.071737829874 792.157918323556 1.5875
vertex 911.559520918764 798.507918323556 1.00451915410647
vertex 911.559520918764 796.469728909795 1.00451915410649
endloop
endfacet
facet normal -0.0376146977800023 4.06569408076656e-16 -0.999292316847737
outer loop
vertex 896.071737829874 792.157918323556 1.5875
vertex 911.559520918764 796.469728909795 1.00451915410649
vertex 938.246117703243 792.157918323556 0.0
endloop
endfacet
facet normal -0.0376146977800023 4.06569408076656e-16 -0.999292316847737
outer loop
vertex 938.246117703243 792.157918323556 0.0
vertex 911.559520918764 796.469728909795 1.00451915410649
vertex 913.992219799059 798.507918323556 0.912949118362882
endloop
endfacet
facet normal -0.0376146977800023 4.06569408076656e-16 -0.999292316847737
outer loop
vertex 938.246117703243 792.157918323556 0.0
vertex 913.992219799059 798.507918323556 0.912949118362882
vertex 938.246117703243 798.507918323556 0.0
endloop
endfacet
facet normal -0.642216575338026 0.766523235369351 -1.3996385186257e-16
outer loop
vertex 913.992219799059 798.507918323556 1.09608918985005
vertex 913.992219799059 798.507918323556 0.912949118362882
vertex 911.559520918764 796.469728909795 1.00451915410649
endloop
endfacet
facet normal -0.641495124866649 0.766746985670173 -0.0241467334856373
outer loop
vertex 911.515694659174 796.469728909795 2.16883116693426
vertex 913.992219799059 798.507918323556 1.09608918985005
vertex 911.559520918764 796.469728909795 1.00451915410649
endloop
endfacet
facet normal -0.641495124866649 0.766746985670173 -0.0241467334856373
outer loop
vertex 913.992219799059 798.507918323556 1.09608918985005
vertex 911.515694659174 796.469728909795 2.16883116693426
vertex 913.948393539469 798.507918323556 2.26040120267782
endloop
endfacet
endsolid Spudger
