solid wooki mgn
facet normal -0.5000000000000648 2.3753557317515852e-14 0.8660254037844013
  outer loop
    vertex 2361.1210145470263 384.1041476476888 498.4011512560086
    vertex 2358.2717909685757 389.8455365448494 496.75615125600837
    vertex 2358.2717909685753 384.10414764768893 496.75615125600837
  endloop
endfacet
facet normal -0.5000000000000648 2.3753557317515852e-14 0.8660254037844013
  outer loop
    vertex 2358.2717909685757 389.8455365448494 496.75615125600837
    vertex 2361.1210145470263 384.1041476476888 498.4011512560086
    vertex 2361.1210145470263 389.84553654484927 498.4011512560086
  endloop
endfacet
facet normal -1.0 4.750711463503194e-14 -5.485649084591578e-14
  outer loop
    vertex 2361.1210145470263 389.84553654484927 501.6911512560086
    vertex 2361.1210145470263 384.1041476476888 498.4011512560086
    vertex 2361.121014547026 384.1041476476888 501.6911512560086
  endloop
endfacet
facet normal -1.0 4.750711463503194e-14 -5.485649084591578e-14
  outer loop
    vertex 2361.1210145470263 384.1041476476888 498.4011512560086
    vertex 2361.1210145470263 389.84553654484927 501.6911512560086
    vertex 2361.1210145470263 389.84553654484927 498.4011512560086
  endloop
endfacet
facet normal 0.499999999999947 -2.3753557317516653e-14 0.8660254037844695
  outer loop
    vertex 2358.2717909685753 384.10414764768893 496.75615125600837
    vertex 2355.4225673901246 389.84553654484955 498.4011512560082
    vertex 2355.4225673901246 384.1041476476891 498.4011512560082
  endloop
endfacet
facet normal 0.499999999999947 -2.3753557317516653e-14 0.8660254037844695
  outer loop
    vertex 2355.4225673901246 389.84553654484955 498.4011512560082
    vertex 2358.2717909685753 384.10414764768893 496.75615125600837
    vertex 2358.2717909685757 389.8455365448494 496.75615125600837
  endloop
endfacet
facet normal 4.7507114635031937e-14 1.0 3.69283099655207e-27
  outer loop
    vertex 2355.4225673901246 384.1041476476891 498.4011512560082
    vertex 2358.2717909685753 384.10414764768893 498.3461512560084
    vertex 2358.2717909685753 384.10414764768893 496.75615125600837
  endloop
endfacet
facet normal 4.7507114635031937e-14 1.0 3.69283099655207e-27
  outer loop
    vertex 2358.2717909685753 384.10414764768893 498.3461512560084
    vertex 2355.4225673901246 384.1041476476891 498.4011512560082
    vertex 2357.831798591901 384.104147647689 498.40407735131697
  endloop
endfacet
facet normal 4.7507114635031937e-14 1.0 3.69283099655207e-27
  outer loop
    vertex 2357.831798591901 384.104147647689 498.40407735131697
    vertex 2355.4225673901246 384.1041476476891 498.4011512560082
    vertex 2357.4217909685754 384.104147647689 498.5739080695747
  endloop
endfacet
facet normal 4.7507114635031937e-14 1.0 3.69283099655207e-27
  outer loop
    vertex 2357.4217909685754 384.104147647689 498.5739080695747
    vertex 2355.4225673901246 384.1041476476891 498.4011512560082
    vertex 2357.069709440558 384.104147647689 498.844069727991
  endloop
endfacet
facet normal 4.7507114635031937e-14 1.0 3.69283099655207e-27
  outer loop
    vertex 2357.069709440558 384.104147647689 498.844069727991
    vertex 2355.4225673901246 384.1041476476891 498.4011512560082
    vertex 2356.799547782142 384.10414764768905 499.196151256008
  endloop
endfacet
facet normal 4.7507114635031937e-14 1.0 3.69283099655207e-27
  outer loop
    vertex 2356.799547782142 384.10414764768905 499.196151256008
    vertex 2355.4225673901246 384.1041476476891 498.4011512560082
    vertex 2355.422567390124 384.1041476476891 501.69115125600825
  endloop
endfacet
facet normal 4.7507114635031937e-14 1.0 3.69283099655207e-27
  outer loop
    vertex 2356.799547782142 384.10414764768905 499.196151256008
    vertex 2355.422567390124 384.1041476476891 501.69115125600825
    vertex 2356.629717063884 384.10414764768905 499.6061588793338
  endloop
endfacet
facet normal 4.7507114635031937e-14 1.0 3.69283099655207e-27
  outer loop
    vertex 2356.629717063884 384.10414764768905 499.6061588793338
    vertex 2355.422567390124 384.1041476476891 501.69115125600825
    vertex 2356.571790968575 384.10414764768905 500.04615125600805
  endloop
endfacet
facet normal 4.7507114635031937e-14 1.0 3.69283099655207e-27
  outer loop
    vertex 2356.571790968575 384.10414764768905 500.04615125600805
    vertex 2355.422567390124 384.1041476476891 501.69115125600825
    vertex 2356.6297170638836 384.10414764768905 500.48614363268223
  endloop
endfacet
facet normal 4.7507114635031937e-14 1.0 3.69283099655207e-27
  outer loop
    vertex 2356.6297170638836 384.10414764768905 500.48614363268223
    vertex 2355.422567390124 384.1041476476891 501.69115125600825
    vertex 2356.7995477821414 384.10414764768905 500.896151256008
  endloop
endfacet
facet normal 4.7507114635031937e-14 1.0 3.69283099655207e-27
  outer loop
    vertex 2356.7995477821414 384.10414764768905 500.896151256008
    vertex 2355.422567390124 384.1041476476891 501.69115125600825
    vertex 2357.0697094405577 384.104147647689 501.2482327840253
  endloop
endfacet
facet normal 4.7507114635031937e-14 1.0 3.69283099655207e-27
  outer loop
    vertex 2357.0697094405577 384.104147647689 501.2482327840253
    vertex 2355.422567390124 384.1041476476891 501.69115125600825
    vertex 2357.421790968575 384.104147647689 501.5183944424417
  endloop
endfacet
facet normal 4.7507114635031937e-14 1.0 3.69283099655207e-27
  outer loop
    vertex 2357.421790968575 384.104147647689 501.5183944424417
    vertex 2355.422567390124 384.1041476476891 501.69115125600825
    vertex 2357.8317985919 384.10414764768893 501.6882251606997
  endloop
endfacet
facet normal 4.7507114635031937e-14 1.0 3.69283099655207e-27
  outer loop
    vertex 2357.8317985919 384.10414764768893 501.6882251606997
    vertex 2355.422567390124 384.1041476476891 501.69115125600825
    vertex 2358.2717909685744 384.10414764768893 501.7461512560084
  endloop
endfacet
facet normal 4.7507114635031937e-14 1.0 3.69283099655207e-27
  outer loop
    vertex 2358.2717909685744 384.10414764768893 501.7461512560084
    vertex 2355.422567390124 384.1041476476891 501.69115125600825
    vertex 2358.271790968575 384.10414764768893 503.33615125600846
  endloop
endfacet
facet normal 4.7507114635031937e-14 1.0 3.69283099655207e-27
  outer loop
    vertex 2358.2717909685753 384.10414764768893 498.3461512560084
    vertex 2361.1210145470263 384.1041476476888 498.4011512560086
    vertex 2358.2717909685753 384.10414764768893 496.75615125600837
  endloop
endfacet
facet normal 4.7507114635031937e-14 1.0 3.69283099655207e-27
  outer loop
    vertex 2361.1210145470263 384.1041476476888 498.4011512560086
    vertex 2358.2717909685753 384.10414764768893 498.3461512560084
    vertex 2358.7117833452494 384.10414764768893 498.40407735131714
  endloop
endfacet
facet normal 4.7507114635031937e-14 1.0 3.69283099655207e-27
  outer loop
    vertex 2361.1210145470263 384.1041476476888 498.4011512560086
    vertex 2358.7117833452494 384.10414764768893 498.40407735131714
    vertex 2359.121790968575 384.10414764768893 498.57390806957505
  endloop
endfacet
facet normal 4.7507114635031937e-14 1.0 3.69283099655207e-27
  outer loop
    vertex 2361.1210145470263 384.1041476476888 498.4011512560086
    vertex 2359.121790968575 384.10414764768893 498.57390806957505
    vertex 2359.4738724965923 384.10414764768893 498.84406972799155
  endloop
endfacet
facet normal 4.7507114635031937e-14 1.0 3.69283099655207e-27
  outer loop
    vertex 2361.1210145470263 384.1041476476888 498.4011512560086
    vertex 2359.4738724965923 384.10414764768893 498.84406972799155
    vertex 2359.7440341550086 384.1041476476889 499.19615125600876
  endloop
endfacet
facet normal 4.7507114635031937e-14 1.0 3.69283099655207e-27
  outer loop
    vertex 2361.1210145470263 384.1041476476888 498.4011512560086
    vertex 2359.7440341550086 384.1041476476889 499.19615125600876
    vertex 2361.121014547026 384.1041476476888 501.6911512560086
  endloop
endfacet
facet normal 4.7507114635031937e-14 1.0 3.69283099655207e-27
  outer loop
    vertex 2361.121014547026 384.1041476476888 501.6911512560086
    vertex 2359.7440341550086 384.1041476476889 499.19615125600876
    vertex 2359.9138648732664 384.1041476476889 499.60615887933454
  endloop
endfacet
facet normal 4.7507114635031937e-14 1.0 3.69283099655207e-27
  outer loop
    vertex 2361.121014547026 384.1041476476888 501.6911512560086
    vertex 2359.9138648732664 384.1041476476889 499.60615887933454
    vertex 2359.971790968575 384.1041476476889 500.0461512560088
  endloop
endfacet
facet normal 4.7507114635031937e-14 1.0 3.69283099655207e-27
  outer loop
    vertex 2361.121014547026 384.1041476476888 501.6911512560086
    vertex 2359.971790968575 384.1041476476889 500.0461512560088
    vertex 2359.9138648732664 384.1041476476889 500.48614363268297
  endloop
endfacet
facet normal 4.7507114635031937e-14 1.0 3.69283099655207e-27
  outer loop
    vertex 2361.121014547026 384.1041476476888 501.6911512560086
    vertex 2359.9138648732664 384.1041476476889 500.48614363268297
    vertex 2359.7440341550086 384.1041476476889 500.89615125600875
  endloop
endfacet
facet normal 4.7507114635031937e-14 1.0 3.69283099655207e-27
  outer loop
    vertex 2361.121014547026 384.1041476476888 501.6911512560086
    vertex 2359.7440341550086 384.1041476476889 500.89615125600875
    vertex 2359.473872496592 384.10414764768893 501.2482327840258
  endloop
endfacet
facet normal 4.7507114635031937e-14 1.0 3.69283099655207e-27
  outer loop
    vertex 2361.121014547026 384.1041476476888 501.6911512560086
    vertex 2359.473872496592 384.10414764768893 501.2482327840258
    vertex 2359.1217909685747 384.10414764768893 501.51839444244206
  endloop
endfacet
facet normal 4.7507114635031937e-14 1.0 3.69283099655207e-27
  outer loop
    vertex 2361.121014547026 384.1041476476888 501.6911512560086
    vertex 2359.1217909685747 384.10414764768893 501.51839444244206
    vertex 2358.711783345249 384.10414764768893 501.68822516069986
  endloop
endfacet
facet normal 4.7507114635031937e-14 1.0 3.69283099655207e-27
  outer loop
    vertex 2361.121014547026 384.1041476476888 501.6911512560086
    vertex 2358.711783345249 384.10414764768893 501.68822516069986
    vertex 2358.2717909685744 384.10414764768893 501.7461512560084
  endloop
endfacet
facet normal 4.7507114635031937e-14 1.0 3.69283099655207e-27
  outer loop
    vertex 2361.121014547026 384.1041476476888 501.6911512560086
    vertex 2358.2717909685744 384.10414764768893 501.7461512560084
    vertex 2358.271790968575 384.10414764768893 503.33615125600846
  endloop
endfacet
facet normal 0.5000000000000648 -2.3753557317515852e-14 -0.8660254037844013
  outer loop
    vertex 2355.4225673901246 389.84553654484955 501.69115125600825
    vertex 2358.271790968575 384.10414764768893 503.33615125600846
    vertex 2355.422567390124 384.1041476476891 501.69115125600825
  endloop
endfacet
facet normal 0.5000000000000648 -2.3753557317515852e-14 -0.8660254037844013
  outer loop
    vertex 2358.271790968575 384.10414764768893 503.33615125600846
    vertex 2355.4225673901246 389.84553654484955 501.69115125600825
    vertex 2358.271790968575 389.8455365448494 503.33615125600846
  endloop
endfacet
facet normal -0.49999999999993505 2.3753557317516085e-14 -0.8660254037844763
  outer loop
    vertex 2361.1210145470263 389.84553654484927 501.6911512560086
    vertex 2358.271790968575 384.10414764768893 503.33615125600846
    vertex 2358.271790968575 389.8455365448494 503.33615125600846
  endloop
endfacet
facet normal -0.49999999999993505 2.3753557317516085e-14 -0.8660254037844763
  outer loop
    vertex 2358.271790968575 384.10414764768893 503.33615125600846
    vertex 2361.1210145470263 389.84553654484927 501.6911512560086
    vertex 2361.121014547026 384.1041476476888 501.6911512560086
  endloop
endfacet
facet normal 1.0 -4.750711463503194e-14 8.228473626887367e-14
  outer loop
    vertex 2355.4225673901246 389.84553654484955 498.4011512560082
    vertex 2355.422567390124 384.1041476476891 501.69115125600825
    vertex 2355.4225673901246 384.1041476476891 498.4011512560082
  endloop
endfacet
facet normal 1.0 -4.750711463503194e-14 8.228473626887367e-14
  outer loop
    vertex 2355.422567390124 384.1041476476891 501.69115125600825
    vertex 2355.4225673901246 389.84553654484955 498.4011512560082
    vertex 2355.4225673901246 389.84553654484955 501.69115125600825
  endloop
endfacet
facet normal 1.0 2.6246102445319707e-28 7.006605971878571e-15
  outer loop
    vertex 2361.899290968574 379.10414764768876 490.04615125600867
    vertex 2361.899290968574 382.92214764768875 510.04615125600844
    vertex 2361.899290968574 379.1041476476887 510.04615125600867
  endloop
endfacet
facet normal 1.0 2.6246102445319707e-28 7.006605971878571e-15
  outer loop
    vertex 2361.899290968574 382.92214764768875 510.04615125600844
    vertex 2361.899290968574 379.10414764768876 490.04615125600867
    vertex 2361.899290968574 382.9221476476888 490.0461512560085
  endloop
endfacet
facet normal 1.0 -6.847099791873624e-14 7.0066059718784115e-15
  outer loop
    vertex 2367.868290968574 382.9221476476884 490.0461512560085
    vertex 2367.868290968574 385.5579768362342 510.04615125600867
    vertex 2367.868290968574 382.92214764768835 510.04615125600844
  endloop
endfacet
facet normal 1.0 -6.847099791873624e-14 7.0066059718784115e-15
  outer loop
    vertex 2367.868290968574 385.5579768362342 510.04615125600867
    vertex 2367.868290968574 382.9221476476884 490.0461512560085
    vertex 2367.8682909685745 385.5579768362342 490.04615125600867
  endloop
endfacet
facet normal -6.80306874663876e-14 -1.0 -2.3252873804582063e-15
  outer loop
    vertex 2367.868290968574 382.92214764768835 510.04615125600844
    vertex 2361.899290968574 382.9221476476888 490.0461512560085
    vertex 2367.868290968574 382.9221476476884 490.0461512560085
  endloop
endfacet
facet normal -6.80306874663876e-14 -1.0 -2.3252873804582063e-15
  outer loop
    vertex 2361.899290968574 382.9221476476888 490.0461512560085
    vertex 2367.868290968574 382.92214764768835 510.04615125600844
    vertex 2361.899290968574 382.92214764768875 510.04615125600844
  endloop
endfacet
facet normal -1.0 7.491816308968992e-14 -7.006605971878396e-15
  outer loop
    vertex 2354.644290968574 382.92214764768926 510.04615125600844
    vertex 2354.644290968574 379.1041476476892 490.0461512560085
    vertex 2354.644290968574 379.1041476476892 510.04615125600844
  endloop
endfacet
facet normal -1.0 7.491816308968992e-14 -7.006605971878396e-15
  outer loop
    vertex 2354.644290968574 379.1041476476892 490.0461512560085
    vertex 2354.644290968574 382.92214764768926 510.04615125600844
    vertex 2354.6442909685743 382.9221476476893 490.0461512560085
  endloop
endfacet
facet normal -0.7071067811865028 0.7071067811865922 -3.3101921208879165e-15
  outer loop
    vertex 2348.6752909685742 385.55797683623564 510.04615125600844
    vertex 2352.962850677189 389.84553654485 490.0461512560085
    vertex 2348.6752909685742 385.5579768362357 490.0461512560085
  endloop
endfacet
facet normal -0.7071067811865028 0.7071067811865922 -3.3101921208879165e-15
  outer loop
    vertex 2352.962850677189 389.84553654485 490.0461512560085
    vertex 2348.6752909685742 385.55797683623564 510.04615125600844
    vertex 2352.962850677189 389.84553654484995 510.04615125600844
  endloop
endfacet
facet normal -6.047172219235093e-14 -1.0 -2.3252873804581535e-15
  outer loop
    vertex 2354.644290968574 382.92214764768926 510.04615125600844
    vertex 2348.6752909685742 382.92214764768966 490.0461512560085
    vertex 2354.6442909685743 382.9221476476893 490.0461512560085
  endloop
endfacet
facet normal -6.047172219235093e-14 -1.0 -2.3252873804581535e-15
  outer loop
    vertex 2348.6752909685742 382.92214764768966 490.0461512560085
    vertex 2354.644290968574 382.92214764768926 510.04615125600844
    vertex 2348.6752909685742 382.9221476476896 510.04615125600844
  endloop
endfacet
facet normal -1.0 -0.0 -7.00660597187857e-15
  outer loop
    vertex 2348.6752909685742 385.55797683623564 510.04615125600844
    vertex 2348.6752909685742 382.92214764768966 490.0461512560085
    vertex 2348.6752909685742 382.9221476476896 510.04615125600844
  endloop
endfacet
facet normal -1.0 -0.0 -7.00660597187857e-15
  outer loop
    vertex 2348.6752909685742 382.92214764768966 490.0461512560085
    vertex 2348.6752909685742 385.55797683623564 510.04615125600844
    vertex 2348.6752909685742 385.5579768362357 490.0461512560085
  endloop
endfacet
facet normal 6.799016186937282e-14 1.0 2.3252873804582063e-15
  outer loop
    vertex 2352.962850677189 389.84553654485 490.0461512560085
    vertex 2355.4225673901246 389.84553654484955 498.4011512560082
    vertex 2363.5807312599604 389.84553654484927 490.04615125600867
  endloop
endfacet
facet normal 6.799016186937282e-14 1.0 2.3252873804582063e-15
  outer loop
    vertex 2355.4225673901246 389.84553654484955 498.4011512560082
    vertex 2352.962850677189 389.84553654485 490.0461512560085
    vertex 2352.962850677189 389.84553654484995 510.04615125600844
  endloop
endfacet
facet normal 6.799016186937282e-14 1.0 2.3252873804582063e-15
  outer loop
    vertex 2363.5807312599604 389.84553654484927 490.04615125600867
    vertex 2355.4225673901246 389.84553654484955 498.4011512560082
    vertex 2358.2717909685757 389.8455365448494 496.75615125600837
  endloop
endfacet
facet normal 6.799016186937282e-14 1.0 2.3252873804582063e-15
  outer loop
    vertex 2355.4225673901246 389.84553654484955 498.4011512560082
    vertex 2352.962850677189 389.84553654484995 510.04615125600844
    vertex 2355.4225673901246 389.84553654484955 501.69115125600825
  endloop
endfacet
facet normal 6.799016186937282e-14 1.0 2.3252873804582063e-15
  outer loop
    vertex 2355.4225673901246 389.84553654484955 501.69115125600825
    vertex 2352.962850677189 389.84553654484995 510.04615125600844
    vertex 2358.271790968575 389.8455365448494 503.33615125600846
  endloop
endfacet
facet normal 6.799016186937282e-14 1.0 2.3252873804582063e-15
  outer loop
    vertex 2363.5807312599604 389.84553654484927 490.04615125600867
    vertex 2361.1210145470263 389.84553654484927 498.4011512560086
    vertex 2363.58073125996 389.8455365448492 510.04615125600867
  endloop
endfacet
facet normal 6.799016186937282e-14 1.0 2.3252873804582063e-15
  outer loop
    vertex 2361.1210145470263 389.84553654484927 498.4011512560086
    vertex 2363.5807312599604 389.84553654484927 490.04615125600867
    vertex 2358.2717909685757 389.8455365448494 496.75615125600837
  endloop
endfacet
facet normal 6.799016186937282e-14 1.0 2.3252873804582063e-15
  outer loop
    vertex 2363.58073125996 389.8455365448492 510.04615125600867
    vertex 2361.1210145470263 389.84553654484927 498.4011512560086
    vertex 2361.1210145470263 389.84553654484927 501.6911512560086
  endloop
endfacet
facet normal 6.799016186937282e-14 1.0 2.3252873804582063e-15
  outer loop
    vertex 2363.58073125996 389.8455365448492 510.04615125600867
    vertex 2361.1210145470263 389.84553654484927 501.6911512560086
    vertex 2358.271790968575 389.8455365448494 503.33615125600846
  endloop
endfacet
facet normal 6.799016186937282e-14 1.0 2.3252873804582063e-15
  outer loop
    vertex 2363.58073125996 389.8455365448492 510.04615125600867
    vertex 2358.271790968575 389.8455365448494 503.33615125600846
    vertex 2352.962850677189 389.84553654484995 510.04615125600844
  endloop
endfacet
facet normal -6.840993810178188e-14 -1.0 -2.3252873804582083e-15
  outer loop
    vertex 2361.899290968574 379.10414764768876 490.04615125600867
    vertex 2358.7117833452485 379.104147647689 498.4040773513173
    vertex 2358.2717909685744 379.104147647689 498.3461512560086
  endloop
endfacet
facet normal -6.840993810178188e-14 -1.0 -2.3252873804582083e-15
  outer loop
    vertex 2358.7117833452485 379.104147647689 498.4040773513173
    vertex 2361.899290968574 379.10414764768876 490.04615125600867
    vertex 2359.121790968574 379.10414764768893 498.5739080695753
  endloop
endfacet
facet normal -6.840993810178188e-14 -1.0 -2.3252873804582083e-15
  outer loop
    vertex 2359.121790968574 379.10414764768893 498.5739080695753
    vertex 2361.899290968574 379.10414764768876 490.04615125600867
    vertex 2359.473872496591 379.10414764768893 498.8440697279917
  endloop
endfacet
facet normal -6.840993810178188e-14 -1.0 -2.3252873804582083e-15
  outer loop
    vertex 2359.473872496591 379.10414764768893 498.8440697279917
    vertex 2361.899290968574 379.10414764768876 490.04615125600867
    vertex 2359.7440341550073 379.1041476476889 499.19615125600893
  endloop
endfacet
facet normal -6.840993810178188e-14 -1.0 -2.3252873804582083e-15
  outer loop
    vertex 2359.7440341550073 379.1041476476889 499.19615125600893
    vertex 2361.899290968574 379.10414764768876 490.04615125600867
    vertex 2359.913864873265 379.1041476476889 499.6061588793347
  endloop
endfacet
facet normal -6.840993810178188e-14 -1.0 -2.3252873804582083e-15
  outer loop
    vertex 2359.913864873265 379.1041476476889 499.6061588793347
    vertex 2361.899290968574 379.10414764768876 490.04615125600867
    vertex 2361.899290968574 379.1041476476887 510.04615125600867
  endloop
endfacet
facet normal -6.840993810178188e-14 -1.0 -2.3252873804582083e-15
  outer loop
    vertex 2359.913864873265 379.1041476476889 499.6061588793347
    vertex 2361.899290968574 379.1041476476887 510.04615125600867
    vertex 2359.9717909685737 379.1041476476889 500.04615125600895
  endloop
endfacet
facet normal -6.840993810178188e-14 -1.0 -2.3252873804582083e-15
  outer loop
    vertex 2359.9717909685737 379.1041476476889 500.04615125600895
    vertex 2361.899290968574 379.1041476476887 510.04615125600867
    vertex 2359.913864873265 379.1041476476889 500.48614363268314
  endloop
endfacet
facet normal -6.840993810178188e-14 -1.0 -2.3252873804582083e-15
  outer loop
    vertex 2359.913864873265 379.1041476476889 500.48614363268314
    vertex 2361.899290968574 379.1041476476887 510.04615125600867
    vertex 2359.744034155007 379.1041476476889 500.8961512560089
  endloop
endfacet
facet normal -6.840993810178188e-14 -1.0 -2.3252873804582083e-15
  outer loop
    vertex 2359.744034155007 379.1041476476889 500.8961512560089
    vertex 2361.899290968574 379.1041476476887 510.04615125600867
    vertex 2359.4738724965905 379.10414764768893 501.24823278402596
  endloop
endfacet
facet normal -6.840993810178188e-14 -1.0 -2.3252873804582083e-15
  outer loop
    vertex 2359.4738724965905 379.10414764768893 501.24823278402596
    vertex 2361.899290968574 379.1041476476887 510.04615125600867
    vertex 2359.121790968574 379.10414764768893 501.51839444244223
  endloop
endfacet
facet normal -6.840993810178188e-14 -1.0 -2.3252873804582083e-15
  outer loop
    vertex 2359.121790968574 379.10414764768893 501.51839444244223
    vertex 2361.899290968574 379.1041476476887 510.04615125600867
    vertex 2358.7117833452476 379.10414764768893 501.68822516070003
  endloop
endfacet
facet normal -6.840993810178188e-14 -1.0 -2.3252873804582083e-15
  outer loop
    vertex 2358.7117833452476 379.10414764768893 501.68822516070003
    vertex 2361.899290968574 379.1041476476887 510.04615125600867
    vertex 2358.2717909685734 379.104147647689 501.74615125600855
  endloop
endfacet
facet normal -6.840993810178188e-14 -1.0 -2.3252873804582083e-15
  outer loop
    vertex 2358.2717909685734 379.104147647689 501.74615125600855
    vertex 2361.899290968574 379.1041476476887 510.04615125600867
    vertex 2354.644290968574 379.1041476476892 510.04615125600844
  endloop
endfacet
facet normal -6.840993810178188e-14 -1.0 -2.3252873804582083e-15
  outer loop
    vertex 2354.644290968574 379.1041476476892 490.0461512560085
    vertex 2356.6297170638823 379.10414764768905 499.606158879334
    vertex 2354.644290968574 379.1041476476892 510.04615125600844
  endloop
endfacet
facet normal -6.840993810178188e-14 -1.0 -2.3252873804582083e-15
  outer loop
    vertex 2356.6297170638823 379.10414764768905 499.606158879334
    vertex 2354.644290968574 379.1041476476892 490.0461512560085
    vertex 2356.7995477821405 379.10414764768905 499.19615125600825
  endloop
endfacet
facet normal -6.840993810178188e-14 -1.0 -2.3252873804582083e-15
  outer loop
    vertex 2356.7995477821405 379.10414764768905 499.19615125600825
    vertex 2354.644290968574 379.1041476476892 490.0461512560085
    vertex 2361.899290968574 379.10414764768876 490.04615125600867
  endloop
endfacet
facet normal -6.840993810178188e-14 -1.0 -2.3252873804582083e-15
  outer loop
    vertex 2356.7995477821405 379.10414764768905 499.19615125600825
    vertex 2361.899290968574 379.10414764768876 490.04615125600867
    vertex 2357.069709440557 379.104147647689 498.84406972799115
  endloop
endfacet
facet normal -6.840993810178188e-14 -1.0 -2.3252873804582083e-15
  outer loop
    vertex 2357.069709440557 379.104147647689 498.84406972799115
    vertex 2361.899290968574 379.10414764768876 490.04615125600867
    vertex 2357.421790968574 379.104147647689 498.5739080695749
  endloop
endfacet
facet normal -6.840993810178188e-14 -1.0 -2.3252873804582083e-15
  outer loop
    vertex 2357.421790968574 379.104147647689 498.5739080695749
    vertex 2361.899290968574 379.10414764768876 490.04615125600867
    vertex 2357.8317985918998 379.104147647689 498.40407735131714
  endloop
endfacet
facet normal -6.840993810178188e-14 -1.0 -2.3252873804582083e-15
  outer loop
    vertex 2357.8317985918998 379.104147647689 498.40407735131714
    vertex 2361.899290968574 379.10414764768876 490.04615125600867
    vertex 2358.2717909685744 379.104147647689 498.3461512560086
  endloop
endfacet
facet normal -6.840993810178188e-14 -1.0 -2.3252873804582083e-15
  outer loop
    vertex 2354.644290968574 379.1041476476892 510.04615125600844
    vertex 2356.6297170638823 379.10414764768905 499.606158879334
    vertex 2356.571790968574 379.10414764768905 500.0461512560082
  endloop
endfacet
facet normal -6.840993810178188e-14 -1.0 -2.3252873804582083e-15
  outer loop
    vertex 2354.644290968574 379.1041476476892 510.04615125600844
    vertex 2356.571790968574 379.10414764768905 500.0461512560082
    vertex 2356.6297170638823 379.10414764768905 500.48614363268246
  endloop
endfacet
facet normal -6.840993810178188e-14 -1.0 -2.3252873804582083e-15
  outer loop
    vertex 2354.644290968574 379.1041476476892 510.04615125600844
    vertex 2356.6297170638823 379.10414764768905 500.48614363268246
    vertex 2356.79954778214 379.10414764768905 500.8961512560082
  endloop
endfacet
facet normal -6.840993810178188e-14 -1.0 -2.3252873804582083e-15
  outer loop
    vertex 2354.644290968574 379.1041476476892 510.04615125600844
    vertex 2356.79954778214 379.10414764768905 500.8961512560082
    vertex 2357.0697094405564 379.104147647689 501.24823278402545
  endloop
endfacet
facet normal -6.840993810178188e-14 -1.0 -2.3252873804582083e-15
  outer loop
    vertex 2354.644290968574 379.1041476476892 510.04615125600844
    vertex 2357.0697094405564 379.104147647689 501.24823278402545
    vertex 2357.4217909685735 379.104147647689 501.5183944424419
  endloop
endfacet
facet normal -6.840993810178188e-14 -1.0 -2.3252873804582083e-15
  outer loop
    vertex 2354.644290968574 379.1041476476892 510.04615125600844
    vertex 2357.4217909685735 379.104147647689 501.5183944424419
    vertex 2357.831798591899 379.104147647689 501.68822516069986
  endloop
endfacet
facet normal -6.840993810178188e-14 -1.0 -2.3252873804582083e-15
  outer loop
    vertex 2354.644290968574 379.1041476476892 510.04615125600844
    vertex 2357.831798591899 379.104147647689 501.68822516069986
    vertex 2358.2717909685734 379.104147647689 501.74615125600855
  endloop
endfacet
facet normal -7.006605971878571e-15 -2.3252873804577295e-15 1.0
  outer loop
    vertex 2361.899290968574 379.1041476476887 510.04615125600867
    vertex 2354.644290968574 382.92214764768926 510.04615125600844
    vertex 2354.644290968574 379.1041476476892 510.04615125600844
  endloop
endfacet
facet normal -7.006605971878571e-15 -2.3252873804577295e-15 1.0
  outer loop
    vertex 2354.644290968574 382.92214764768926 510.04615125600844
    vertex 2348.6752909685742 385.55797683623564 510.04615125600844
    vertex 2348.6752909685742 382.9221476476896 510.04615125600844
  endloop
endfacet
facet normal -7.006605971878571e-15 -2.3252873804577295e-15 1.0
  outer loop
    vertex 2348.6752909685742 385.55797683623564 510.04615125600844
    vertex 2354.644290968574 382.92214764768926 510.04615125600844
    vertex 2352.962850677189 389.84553654484995 510.04615125600844
  endloop
endfacet
facet normal -7.006605971878571e-15 -2.3252873804577295e-15 1.0
  outer loop
    vertex 2352.962850677189 389.84553654484995 510.04615125600844
    vertex 2354.644290968574 382.92214764768926 510.04615125600844
    vertex 2363.58073125996 389.8455365448492 510.04615125600867
  endloop
endfacet
facet normal -7.006605971878571e-15 -2.3252873804577295e-15 1.0
  outer loop
    vertex 2363.58073125996 389.8455365448492 510.04615125600867
    vertex 2354.644290968574 382.92214764768926 510.04615125600844
    vertex 2361.899290968574 382.92214764768875 510.04615125600844
  endloop
endfacet
facet normal -7.006605971878571e-15 -2.3252873804577295e-15 1.0
  outer loop
    vertex 2361.899290968574 382.92214764768875 510.04615125600844
    vertex 2354.644290968574 382.92214764768926 510.04615125600844
    vertex 2361.899290968574 379.1041476476887 510.04615125600867
  endloop
endfacet
facet normal -7.006605971878571e-15 -2.3252873804577295e-15 1.0
  outer loop
    vertex 2363.58073125996 389.8455365448492 510.04615125600867
    vertex 2361.899290968574 382.92214764768875 510.04615125600844
    vertex 2367.868290968574 382.92214764768835 510.04615125600844
  endloop
endfacet
facet normal -7.006605971878571e-15 -2.3252873804577295e-15 1.0
  outer loop
    vertex 2363.58073125996 389.8455365448492 510.04615125600867
    vertex 2367.868290968574 382.92214764768835 510.04615125600844
    vertex 2367.868290968574 385.5579768362342 510.04615125600867
  endloop
endfacet
facet normal 0.7071067811865996 0.7071067811864955 6.598645070746906e-15
  outer loop
    vertex 2367.8682909685745 385.5579768362342 490.04615125600867
    vertex 2363.58073125996 389.8455365448492 510.04615125600867
    vertex 2367.868290968574 385.5579768362342 510.04615125600867
  endloop
endfacet
facet normal 0.7071067811865996 0.7071067811864955 6.598645070746906e-15
  outer loop
    vertex 2363.58073125996 389.8455365448492 510.04615125600867
    vertex 2367.8682909685745 385.5579768362342 490.04615125600867
    vertex 2363.5807312599604 389.84553654484927 490.04615125600867
  endloop
endfacet
facet normal 0.7933533402911406 -1.020906032912851e-13 0.6087614290088442
  outer loop
    vertex 2357.069709440558 384.104147647689 498.844069727991
    vertex 2356.7995477821405 379.10414764768905 499.19615125600825
    vertex 2357.069709440557 379.104147647689 498.84406972799115
  endloop
endfacet
facet normal 0.7933533402911406 -1.020906032912851e-13 0.6087614290088442
  outer loop
    vertex 2356.7995477821405 379.10414764768905 499.19615125600825
    vertex 2357.069709440558 384.104147647689 498.844069727991
    vertex 2356.799547782142 384.10414764768905 499.196151256008
  endloop
endfacet
facet normal 0.60876142900849 -7.159985776777674e-14 0.7933533402914124
  outer loop
    vertex 2357.421790968574 379.104147647689 498.5739080695749
    vertex 2357.069709440558 384.104147647689 498.844069727991
    vertex 2357.069709440557 379.104147647689 498.84406972799115
  endloop
endfacet
facet normal 0.60876142900849 -7.159985776777674e-14 0.7933533402914124
  outer loop
    vertex 2357.069709440558 384.104147647689 498.844069727991
    vertex 2357.421790968574 379.104147647689 498.5739080695749
    vertex 2357.4217909685754 384.104147647689 498.5739080695747
  endloop
endfacet
facet normal 0.38268343236485186 -3.623283217731985e-14 0.9238795325113854
  outer loop
    vertex 2357.8317985918998 379.104147647689 498.40407735131714
    vertex 2357.4217909685754 384.104147647689 498.5739080695747
    vertex 2357.421790968574 379.104147647689 498.5739080695749
  endloop
endfacet
facet normal 0.38268343236485186 -3.623283217731985e-14 0.9238795325113854
  outer loop
    vertex 2357.4217909685754 384.104147647689 498.5739080695747
    vertex 2357.8317985918998 379.104147647689 498.40407735131714
    vertex 2357.831798591901 384.104147647689 498.40407735131697
  endloop
endfacet
facet normal 0.13052619221992148 1.605595159291657e-15 0.9914448613738276
  outer loop
    vertex 2358.2717909685744 379.104147647689 498.3461512560086
    vertex 2357.831798591901 384.104147647689 498.40407735131697
    vertex 2357.8317985918998 379.104147647689 498.40407735131714
  endloop
endfacet
facet normal 0.13052619221992148 1.605595159291657e-15 0.9914448613738276
  outer loop
    vertex 2357.831798591901 384.104147647689 498.40407735131697
    vertex 2358.2717909685744 379.104147647689 498.3461512560086
    vertex 2358.2717909685753 384.10414764768893 498.3461512560084
  endloop
endfacet
facet normal -0.608761429008746 1.0436006772246733e-13 0.7933533402912157
  outer loop
    vertex 2359.473872496591 379.10414764768893 498.8440697279917
    vertex 2359.121790968575 384.10414764768893 498.57390806957505
    vertex 2359.121790968574 379.10414764768893 498.5739080695753
  endloop
endfacet
facet normal -0.608761429008746 1.0436006772246733e-13 0.7933533402912157
  outer loop
    vertex 2359.121790968575 384.10414764768893 498.57390806957505
    vertex 2359.473872496591 379.10414764768893 498.8440697279917
    vertex 2359.4738724965923 384.10414764768893 498.84406972799155
  endloop
endfacet
facet normal -0.9238795325113854 1.4142395791507924e-13 0.38268343236485186
  outer loop
    vertex 2359.9138648732664 384.1041476476889 499.60615887933454
    vertex 2359.7440341550073 379.1041476476889 499.19615125600893
    vertex 2359.913864873265 379.1041476476889 499.6061588793347
  endloop
endfacet
facet normal -0.9238795325113854 1.4142395791507924e-13 0.38268343236485186
  outer loop
    vertex 2359.7440341550073 379.1041476476889 499.19615125600893
    vertex 2359.9138648732664 384.1041476476889 499.60615887933454
    vertex 2359.7440341550086 384.1041476476889 499.19615125600876
  endloop
endfacet
facet normal -0.9914448613737714 1.405935606449177e-13 -0.1305261922203476
  outer loop
    vertex 2359.9138648732664 384.1041476476889 500.48614363268297
    vertex 2359.9717909685737 379.1041476476889 500.04615125600895
    vertex 2359.913864873265 379.1041476476889 500.48614363268314
  endloop
endfacet
facet normal -0.9914448613737714 1.405935606449177e-13 -0.1305261922203476
  outer loop
    vertex 2359.9717909685737 379.1041476476889 500.04615125600895
    vertex 2359.9138648732664 384.1041476476889 500.48614363268297
    vertex 2359.971790968575 384.1041476476889 500.0461512560088
  endloop
endfacet
facet normal -0.7933533402914875 1.2722861583371852e-13 0.6087614290083917
  outer loop
    vertex 2359.7440341550086 384.1041476476889 499.19615125600876
    vertex 2359.473872496591 379.10414764768893 498.8440697279917
    vertex 2359.7440341550073 379.1041476476889 499.19615125600893
  endloop
endfacet
facet normal -0.7933533402914875 1.2722861583371852e-13 0.6087614290083917
  outer loop
    vertex 2359.473872496591 379.10414764768893 498.8440697279917
    vertex 2359.7440341550086 384.1041476476889 499.19615125600876
    vertex 2359.4738724965923 384.10414764768893 498.84406972799155
  endloop
endfacet
facet normal -0.13052619222032125 3.933392125858099e-14 0.991444861373775
  outer loop
    vertex 2358.7117833452485 379.104147647689 498.4040773513173
    vertex 2358.2717909685753 384.10414764768893 498.3461512560084
    vertex 2358.2717909685744 379.104147647689 498.3461512560086
  endloop
endfacet
facet normal -0.13052619222032125 3.933392125858099e-14 0.991444861373775
  outer loop
    vertex 2358.2717909685753 384.10414764768893 498.3461512560084
    vertex 2358.7117833452485 379.104147647689 498.4040773513173
    vertex 2358.7117833452494 384.10414764768893 498.40407735131714
  endloop
endfacet
facet normal -0.991444861373824 1.4598284992412057e-13 0.1305261922199478
  outer loop
    vertex 2359.971790968575 384.1041476476889 500.0461512560088
    vertex 2359.913864873265 379.1041476476889 499.6061588793347
    vertex 2359.9717909685737 379.1041476476889 500.04615125600895
  endloop
endfacet
facet normal -0.991444861373824 1.4598284992412057e-13 0.1305261922199478
  outer loop
    vertex 2359.913864873265 379.1041476476889 499.6061588793347
    vertex 2359.971790968575 384.1041476476889 500.0461512560088
    vertex 2359.9138648732664 384.1041476476889 499.60615887933454
  endloop
endfacet
facet normal -0.38268343236534264 7.438190604163121e-14 0.923879532511182
  outer loop
    vertex 2359.121790968574 379.10414764768893 498.5739080695753
    vertex 2358.7117833452494 384.10414764768893 498.40407735131714
    vertex 2358.7117833452485 379.104147647689 498.4040773513173
  endloop
endfacet
facet normal -0.38268343236534264 7.438190604163121e-14 0.923879532511182
  outer loop
    vertex 2358.7117833452494 384.10414764768893 498.40407735131714
    vertex 2359.121790968574 379.10414764768893 498.5739080695753
    vertex 2359.121790968575 384.10414764768893 498.57390806957505
  endloop
endfacet
facet normal -0.7933533402911406 1.020906032912851e-13 -0.6087614290088442
  outer loop
    vertex 2359.4738724965905 379.10414764768893 501.24823278402596
    vertex 2359.7440341550086 384.1041476476889 500.89615125600875
    vertex 2359.744034155007 379.1041476476889 500.8961512560089
  endloop
endfacet
facet normal -0.7933533402911406 1.020906032912851e-13 -0.6087614290088442
  outer loop
    vertex 2359.7440341550086 384.1041476476889 500.89615125600875
    vertex 2359.4738724965905 379.10414764768893 501.24823278402596
    vertex 2359.473872496592 384.10414764768893 501.2482327840258
  endloop
endfacet
facet normal -0.6087614290084901 7.159985776777674e-14 -0.7933533402914124
  outer loop
    vertex 2359.1217909685747 384.10414764768893 501.51839444244206
    vertex 2359.4738724965905 379.10414764768893 501.24823278402596
    vertex 2359.121790968574 379.10414764768893 501.51839444244223
  endloop
endfacet
facet normal -0.6087614290084901 7.159985776777674e-14 -0.7933533402914124
  outer loop
    vertex 2359.4738724965905 379.10414764768893 501.24823278402596
    vertex 2359.1217909685747 384.10414764768893 501.51839444244206
    vertex 2359.473872496592 384.10414764768893 501.2482327840258
  endloop
endfacet
facet normal -0.9238795325112416 1.256223209981808e-13 -0.3826834323651989
  outer loop
    vertex 2359.7440341550086 384.1041476476889 500.89615125600875
    vertex 2359.913864873265 379.1041476476889 500.48614363268314
    vertex 2359.744034155007 379.1041476476889 500.8961512560089
  endloop
endfacet
facet normal -0.9238795325112416 1.256223209981808e-13 -0.3826834323651989
  outer loop
    vertex 2359.913864873265 379.1041476476889 500.48614363268314
    vertex 2359.7440341550086 384.1041476476889 500.89615125600875
    vertex 2359.9138648732664 384.1041476476889 500.48614363268297
  endloop
endfacet
facet normal -0.13052619221992148 -1.605595159291641e-15 -0.9914448613738276
  outer loop
    vertex 2358.2717909685744 384.10414764768893 501.7461512560084
    vertex 2358.7117833452476 379.10414764768893 501.68822516070003
    vertex 2358.2717909685734 379.104147647689 501.74615125600855
  endloop
endfacet
facet normal -0.13052619221992148 -1.605595159291641e-15 -0.9914448613738276
  outer loop
    vertex 2358.7117833452476 379.10414764768893 501.68822516070003
    vertex 2358.2717909685744 384.10414764768893 501.7461512560084
    vertex 2358.711783345249 384.10414764768893 501.68822516069986
  endloop
endfacet
facet normal 0.13052619222032122 -3.933437504907367e-14 -0.991444861373775
  outer loop
    vertex 2357.8317985919 384.10414764768893 501.6882251606997
    vertex 2358.2717909685734 379.104147647689 501.74615125600855
    vertex 2357.831798591899 379.104147647689 501.68822516069986
  endloop
endfacet
facet normal 0.13052619222032122 -3.933437504907367e-14 -0.991444861373775
  outer loop
    vertex 2358.2717909685734 379.104147647689 501.74615125600855
    vertex 2357.8317985919 384.10414764768893 501.6882251606997
    vertex 2358.2717909685744 384.10414764768893 501.7461512560084
  endloop
endfacet
facet normal 0.38268343236534264 -7.438190604163121e-14 -0.923879532511182
  outer loop
    vertex 2357.421790968575 384.104147647689 501.5183944424417
    vertex 2357.831798591899 379.104147647689 501.68822516069986
    vertex 2357.4217909685735 379.104147647689 501.5183944424419
  endloop
endfacet
facet normal 0.38268343236534264 -7.438190604163121e-14 -0.923879532511182
  outer loop
    vertex 2357.831798591899 379.104147647689 501.68822516069986
    vertex 2357.421790968575 384.104147647689 501.5183944424417
    vertex 2357.8317985919 384.10414764768893 501.6882251606997
  endloop
endfacet
facet normal -0.3826834323648518 3.6232832177319834e-14 -0.9238795325113854
  outer loop
    vertex 2358.711783345249 384.10414764768893 501.68822516069986
    vertex 2359.121790968574 379.10414764768893 501.51839444244223
    vertex 2358.7117833452476 379.10414764768893 501.68822516070003
  endloop
endfacet
facet normal -0.3826834323648518 3.6232832177319834e-14 -0.9238795325113854
  outer loop
    vertex 2359.121790968574 379.10414764768893 501.51839444244223
    vertex 2358.711783345249 384.10414764768893 501.68822516069986
    vertex 2359.1217909685747 384.10414764768893 501.51839444244206
  endloop
endfacet
facet normal 0.7933533402914875 -1.2722861583371852e-13 -0.6087614290083917
  outer loop
    vertex 2356.79954778214 379.10414764768905 500.8961512560082
    vertex 2357.0697094405577 384.104147647689 501.2482327840253
    vertex 2357.0697094405564 379.104147647689 501.24823278402545
  endloop
endfacet
facet normal 0.7933533402914875 -1.2722861583371852e-13 -0.6087614290083917
  outer loop
    vertex 2357.0697094405577 384.104147647689 501.2482327840253
    vertex 2356.79954778214 379.10414764768905 500.8961512560082
    vertex 2356.7995477821414 384.10414764768905 500.896151256008
  endloop
endfacet
facet normal 0.9238795325113854 -1.4142255666234128e-13 -0.38268343236485186
  outer loop
    vertex 2356.6297170638836 384.10414764768905 500.48614363268223
    vertex 2356.79954778214 379.10414764768905 500.8961512560082
    vertex 2356.6297170638823 379.10414764768905 500.48614363268246
  endloop
endfacet
facet normal 0.9238795325113854 -1.4142255666234128e-13 -0.38268343236485186
  outer loop
    vertex 2356.79954778214 379.10414764768905 500.8961512560082
    vertex 2356.6297170638836 384.10414764768905 500.48614363268223
    vertex 2356.7995477821414 384.10414764768905 500.896151256008
  endloop
endfacet
facet normal 0.991444861373824 -1.4598284992412057e-13 -0.1305261922199478
  outer loop
    vertex 2356.571790968575 384.10414764768905 500.04615125600805
    vertex 2356.6297170638823 379.10414764768905 500.48614363268246
    vertex 2356.571790968574 379.10414764768905 500.0461512560082
  endloop
endfacet
facet normal 0.991444861373824 -1.4598284992412057e-13 -0.1305261922199478
  outer loop
    vertex 2356.6297170638823 379.10414764768905 500.48614363268246
    vertex 2356.571790968575 384.10414764768905 500.04615125600805
    vertex 2356.6297170638836 384.10414764768905 500.48614363268223
  endloop
endfacet
facet normal 0.608761429008746 -1.0436006772246733e-13 -0.7933533402912157
  outer loop
    vertex 2357.0697094405577 384.104147647689 501.2482327840253
    vertex 2357.4217909685735 379.104147647689 501.5183944424419
    vertex 2357.0697094405564 379.104147647689 501.24823278402545
  endloop
endfacet
facet normal 0.608761429008746 -1.0436006772246733e-13 -0.7933533402912157
  outer loop
    vertex 2357.4217909685735 379.104147647689 501.5183944424419
    vertex 2357.0697094405577 384.104147647689 501.2482327840253
    vertex 2357.421790968575 384.104147647689 501.5183944424417
  endloop
endfacet
facet normal 0.9914448613737714 -1.405935606449177e-13 0.1305261922203476
  outer loop
    vertex 2356.629717063884 384.10414764768905 499.6061588793338
    vertex 2356.571790968574 379.10414764768905 500.0461512560082
    vertex 2356.6297170638823 379.10414764768905 499.606158879334
  endloop
endfacet
facet normal 0.9914448613737714 -1.405935606449177e-13 0.1305261922203476
  outer loop
    vertex 2356.571790968574 379.10414764768905 500.0461512560082
    vertex 2356.629717063884 384.10414764768905 499.6061588793338
    vertex 2356.571790968575 384.10414764768905 500.04615125600805
  endloop
endfacet
facet normal 0.9238795325112416 -1.2562372225091875e-13 0.3826834323651989
  outer loop
    vertex 2356.799547782142 384.10414764768905 499.196151256008
    vertex 2356.6297170638823 379.10414764768905 499.606158879334
    vertex 2356.7995477821405 379.10414764768905 499.19615125600825
  endloop
endfacet
facet normal 0.9238795325112416 -1.2562372225091875e-13 0.3826834323651989
  outer loop
    vertex 2356.6297170638823 379.10414764768905 499.606158879334
    vertex 2356.799547782142 384.10414764768905 499.196151256008
    vertex 2356.629717063884 384.10414764768905 499.6061588793338
  endloop
endfacet
facet normal 7.006605971878571e-15 2.3252873804577295e-15 -1.0
  outer loop
    vertex 2352.962850677189 389.84553654485 490.0461512560085
    vertex 2348.6752909685742 382.92214764768966 490.0461512560085
    vertex 2348.6752909685742 385.5579768362357 490.0461512560085
  endloop
endfacet
facet normal 7.006605971878571e-15 2.3252873804577295e-15 -1.0
  outer loop
    vertex 2348.6752909685742 382.92214764768966 490.0461512560085
    vertex 2352.962850677189 389.84553654485 490.0461512560085
    vertex 2354.6442909685743 382.9221476476893 490.0461512560085
  endloop
endfacet
facet normal 7.006605971878571e-15 2.3252873804577295e-15 -1.0
  outer loop
    vertex 2354.6442909685743 382.9221476476893 490.0461512560085
    vertex 2352.962850677189 389.84553654485 490.0461512560085
    vertex 2363.5807312599604 389.84553654484927 490.04615125600867
  endloop
endfacet
facet normal 7.006605971878571e-15 2.3252873804577295e-15 -1.0
  outer loop
    vertex 2354.6442909685743 382.9221476476893 490.0461512560085
    vertex 2363.5807312599604 389.84553654484927 490.04615125600867
    vertex 2361.899290968574 382.9221476476888 490.0461512560085
  endloop
endfacet
facet normal 7.006605971878571e-15 2.3252873804577295e-15 -1.0
  outer loop
    vertex 2361.899290968574 382.9221476476888 490.0461512560085
    vertex 2363.5807312599604 389.84553654484927 490.04615125600867
    vertex 2367.868290968574 382.9221476476884 490.0461512560085
  endloop
endfacet
facet normal 7.006605971878571e-15 2.3252873804577295e-15 -1.0
  outer loop
    vertex 2367.868290968574 382.9221476476884 490.0461512560085
    vertex 2363.5807312599604 389.84553654484927 490.04615125600867
    vertex 2367.8682909685745 385.5579768362342 490.04615125600867
  endloop
endfacet
facet normal 7.006605971878571e-15 2.3252873804577295e-15 -1.0
  outer loop
    vertex 2354.6442909685743 382.9221476476893 490.0461512560085
    vertex 2361.899290968574 379.10414764768876 490.04615125600867
    vertex 2354.644290968574 379.1041476476892 490.0461512560085
  endloop
endfacet
facet normal 7.006605971878571e-15 2.3252873804577295e-15 -1.0
  outer loop
    vertex 2361.899290968574 379.10414764768876 490.04615125600867
    vertex 2354.6442909685743 382.9221476476893 490.0461512560085
    vertex 2361.899290968574 382.9221476476888 490.0461512560085
  endloop
endfacet
endsolid wooki mgn
